<mxfile host="app.diagrams.net" modified="2024-01-15T03:06:31.371Z" agent="Mozilla/5.0 (Windows NT 10.0; Win64; x64) AppleWebKit/537.36 (KHTML, like Gecko) Chrome/120.0.0.0 Safari/537.36" etag="WJcwd50-FYKAr1x47R7f" version="22.1.18" type="github">
  <diagram name="Page-1" id="Ly3t5yEVrUylIeWnMrQr">
    <mxGraphModel dx="2074" dy="1872" grid="1" gridSize="10" guides="1" tooltips="1" connect="1" arrows="1" fold="1" page="1" pageScale="1" pageWidth="850" pageHeight="1100" math="0" shadow="0">
      <root>
        <mxCell id="0" />
        <mxCell id="1" parent="0" />
        <mxCell id="pLg2lnxw55BxPSGZb04j-53" value="" style="rounded=0;whiteSpace=wrap;html=1;" vertex="1" parent="1">
          <mxGeometry y="-5" width="850" height="805" as="geometry" />
        </mxCell>
        <mxCell id="pLg2lnxw55BxPSGZb04j-1" value="" style="rounded=1;whiteSpace=wrap;html=1;" vertex="1" parent="1">
          <mxGeometry x="40" y="40" width="120" height="60" as="geometry" />
        </mxCell>
        <mxCell id="pLg2lnxw55BxPSGZb04j-2" value="&lt;b&gt;Landing Page&lt;/b&gt;" style="text;html=1;strokeColor=none;fillColor=none;align=center;verticalAlign=middle;whiteSpace=wrap;rounded=0;" vertex="1" parent="1">
          <mxGeometry x="55" y="55" width="90" height="30" as="geometry" />
        </mxCell>
        <mxCell id="pLg2lnxw55BxPSGZb04j-3" value="" style="rounded=1;whiteSpace=wrap;html=1;" vertex="1" parent="1">
          <mxGeometry x="380" y="40" width="120" height="60" as="geometry" />
        </mxCell>
        <mxCell id="pLg2lnxw55BxPSGZb04j-4" value="&lt;b&gt;Pendaftaran User&lt;/b&gt;" style="text;html=1;strokeColor=none;fillColor=none;align=center;verticalAlign=middle;whiteSpace=wrap;rounded=0;" vertex="1" parent="1">
          <mxGeometry x="395" y="55" width="90" height="30" as="geometry" />
        </mxCell>
        <mxCell id="pLg2lnxw55BxPSGZb04j-5" value="" style="rounded=1;whiteSpace=wrap;html=1;" vertex="1" parent="1">
          <mxGeometry x="680" y="40" width="120" height="60" as="geometry" />
        </mxCell>
        <mxCell id="pLg2lnxw55BxPSGZb04j-6" value="&lt;b&gt;Verifikasi User Via Email&lt;/b&gt;" style="text;html=1;strokeColor=none;fillColor=none;align=center;verticalAlign=middle;whiteSpace=wrap;rounded=0;" vertex="1" parent="1">
          <mxGeometry x="695" y="55" width="90" height="30" as="geometry" />
        </mxCell>
        <mxCell id="pLg2lnxw55BxPSGZb04j-7" value="" style="rounded=1;whiteSpace=wrap;html=1;" vertex="1" parent="1">
          <mxGeometry x="680" y="200" width="120" height="60" as="geometry" />
        </mxCell>
        <mxCell id="pLg2lnxw55BxPSGZb04j-8" value="&lt;b&gt;User Mengisi Forumulir PMB&lt;/b&gt;" style="text;html=1;strokeColor=none;fillColor=none;align=center;verticalAlign=middle;whiteSpace=wrap;rounded=0;" vertex="1" parent="1">
          <mxGeometry x="695" y="215" width="90" height="30" as="geometry" />
        </mxCell>
        <mxCell id="pLg2lnxw55BxPSGZb04j-43" value="" style="edgeStyle=orthogonalEdgeStyle;rounded=0;orthogonalLoop=1;jettySize=auto;html=1;" edge="1" parent="1" source="pLg2lnxw55BxPSGZb04j-9" target="pLg2lnxw55BxPSGZb04j-8">
          <mxGeometry relative="1" as="geometry" />
        </mxCell>
        <mxCell id="pLg2lnxw55BxPSGZb04j-9" value="" style="rounded=1;whiteSpace=wrap;html=1;" vertex="1" parent="1">
          <mxGeometry x="395" y="200" width="210" height="60" as="geometry" />
        </mxCell>
        <mxCell id="pLg2lnxw55BxPSGZb04j-10" value="&lt;b&gt;User Mendapatkan Nomor Registrasi sesuai Prodi&lt;/b&gt;" style="text;html=1;strokeColor=none;fillColor=none;align=center;verticalAlign=middle;whiteSpace=wrap;rounded=0;" vertex="1" parent="1">
          <mxGeometry x="410" y="215" width="175" height="30" as="geometry" />
        </mxCell>
        <mxCell id="pLg2lnxw55BxPSGZb04j-11" value="" style="rounded=1;whiteSpace=wrap;html=1;" vertex="1" parent="1">
          <mxGeometry x="40" y="200" width="280" height="60" as="geometry" />
        </mxCell>
        <mxCell id="pLg2lnxw55BxPSGZb04j-12" value="&lt;b&gt;User Diarahkan Untuk Membayar &lt;br&gt;Biaya Pendaftaran&lt;br&gt;(Menambahkan Kode Unik 4 Digit terkahir&lt;br&gt;&lt;/b&gt;" style="text;html=1;strokeColor=none;fillColor=none;align=center;verticalAlign=middle;whiteSpace=wrap;rounded=0;" vertex="1" parent="1">
          <mxGeometry x="52.5" y="215" width="255" height="30" as="geometry" />
        </mxCell>
        <mxCell id="pLg2lnxw55BxPSGZb04j-13" value="" style="rounded=1;whiteSpace=wrap;html=1;" vertex="1" parent="1">
          <mxGeometry x="105" y="320" width="150" height="60" as="geometry" />
        </mxCell>
        <mxCell id="pLg2lnxw55BxPSGZb04j-14" value="&lt;b&gt;User Mengupload Bukti Pembayaran&lt;/b&gt;" style="text;html=1;strokeColor=none;fillColor=none;align=center;verticalAlign=middle;whiteSpace=wrap;rounded=0;" vertex="1" parent="1">
          <mxGeometry x="122.5" y="335" width="115" height="30" as="geometry" />
        </mxCell>
        <mxCell id="pLg2lnxw55BxPSGZb04j-15" value="" style="rounded=1;whiteSpace=wrap;html=1;" vertex="1" parent="1">
          <mxGeometry x="105" y="440" width="150" height="60" as="geometry" />
        </mxCell>
        <mxCell id="pLg2lnxw55BxPSGZb04j-16" value="&lt;b&gt;Verifikasi Pembayaran Oleh Admin&lt;/b&gt;" style="text;html=1;strokeColor=none;fillColor=none;align=center;verticalAlign=middle;whiteSpace=wrap;rounded=0;" vertex="1" parent="1">
          <mxGeometry x="122.5" y="455" width="115" height="30" as="geometry" />
        </mxCell>
        <mxCell id="pLg2lnxw55BxPSGZb04j-17" value="" style="rhombus;whiteSpace=wrap;html=1;" vertex="1" parent="1">
          <mxGeometry x="360" y="360" width="80" height="80" as="geometry" />
        </mxCell>
        <mxCell id="pLg2lnxw55BxPSGZb04j-18" value="&lt;b&gt;Status Verifikasi&lt;/b&gt;" style="text;html=1;strokeColor=none;fillColor=none;align=center;verticalAlign=middle;whiteSpace=wrap;rounded=0;" vertex="1" parent="1">
          <mxGeometry x="370" y="385" width="60" height="30" as="geometry" />
        </mxCell>
        <mxCell id="pLg2lnxw55BxPSGZb04j-19" value="" style="rounded=1;whiteSpace=wrap;html=1;" vertex="1" parent="1">
          <mxGeometry x="560" y="370" width="150" height="60" as="geometry" />
        </mxCell>
        <mxCell id="pLg2lnxw55BxPSGZb04j-20" value="&lt;b&gt;Mengikuti Ujian Online&lt;/b&gt;" style="text;html=1;strokeColor=none;fillColor=none;align=center;verticalAlign=middle;whiteSpace=wrap;rounded=0;" vertex="1" parent="1">
          <mxGeometry x="577.5" y="385" width="115" height="30" as="geometry" />
        </mxCell>
        <mxCell id="pLg2lnxw55BxPSGZb04j-21" value="" style="rhombus;whiteSpace=wrap;html=1;" vertex="1" parent="1">
          <mxGeometry x="600" y="520" width="80" height="80" as="geometry" />
        </mxCell>
        <mxCell id="pLg2lnxw55BxPSGZb04j-22" value="&lt;b&gt;Hasil Ujian&lt;/b&gt;" style="text;html=1;strokeColor=none;fillColor=none;align=center;verticalAlign=middle;whiteSpace=wrap;rounded=0;" vertex="1" parent="1">
          <mxGeometry x="610" y="545" width="60" height="30" as="geometry" />
        </mxCell>
        <mxCell id="pLg2lnxw55BxPSGZb04j-23" value="" style="rounded=1;whiteSpace=wrap;html=1;" vertex="1" parent="1">
          <mxGeometry x="710" y="460" width="120" height="60" as="geometry" />
        </mxCell>
        <mxCell id="pLg2lnxw55BxPSGZb04j-24" value="&lt;b&gt;Tidak Lulus&lt;/b&gt;" style="text;html=1;strokeColor=none;fillColor=none;align=center;verticalAlign=middle;whiteSpace=wrap;rounded=0;" vertex="1" parent="1">
          <mxGeometry x="725" y="475" width="90" height="30" as="geometry" />
        </mxCell>
        <mxCell id="pLg2lnxw55BxPSGZb04j-25" value="" style="rounded=1;whiteSpace=wrap;html=1;" vertex="1" parent="1">
          <mxGeometry x="360" y="530" width="120" height="60" as="geometry" />
        </mxCell>
        <mxCell id="pLg2lnxw55BxPSGZb04j-26" value="&lt;b&gt;Lulus&lt;/b&gt;" style="text;html=1;strokeColor=none;fillColor=none;align=center;verticalAlign=middle;whiteSpace=wrap;rounded=0;" vertex="1" parent="1">
          <mxGeometry x="375" y="545" width="90" height="30" as="geometry" />
        </mxCell>
        <mxCell id="pLg2lnxw55BxPSGZb04j-27" value="" style="rounded=1;whiteSpace=wrap;html=1;" vertex="1" parent="1">
          <mxGeometry x="105" y="530" width="155" height="60" as="geometry" />
        </mxCell>
        <mxCell id="pLg2lnxw55BxPSGZb04j-28" value="&lt;b&gt;Mengisi/Mengupload Kelangkapan Data&lt;/b&gt;" style="text;html=1;strokeColor=none;fillColor=none;align=center;verticalAlign=middle;whiteSpace=wrap;rounded=0;" vertex="1" parent="1">
          <mxGeometry x="135" y="545" width="90" height="30" as="geometry" />
        </mxCell>
        <mxCell id="pLg2lnxw55BxPSGZb04j-29" value="" style="rounded=1;whiteSpace=wrap;html=1;" vertex="1" parent="1">
          <mxGeometry x="342.5" y="680" width="155" height="60" as="geometry" />
        </mxCell>
        <mxCell id="pLg2lnxw55BxPSGZb04j-30" value="&lt;b&gt;DAFTAR ULANG&lt;/b&gt;" style="text;html=1;strokeColor=none;fillColor=none;align=center;verticalAlign=middle;whiteSpace=wrap;rounded=0;" vertex="1" parent="1">
          <mxGeometry x="372.5" y="695" width="97.5" height="30" as="geometry" />
        </mxCell>
        <mxCell id="pLg2lnxw55BxPSGZb04j-31" value="" style="endArrow=classic;html=1;rounded=0;entryX=0;entryY=0.5;entryDx=0;entryDy=0;" edge="1" parent="1" target="pLg2lnxw55BxPSGZb04j-3">
          <mxGeometry width="50" height="50" relative="1" as="geometry">
            <mxPoint x="160" y="70" as="sourcePoint" />
            <mxPoint x="370" y="70" as="targetPoint" />
          </mxGeometry>
        </mxCell>
        <mxCell id="pLg2lnxw55BxPSGZb04j-32" value="" style="endArrow=classic;html=1;rounded=0;exitX=1;exitY=0.5;exitDx=0;exitDy=0;entryX=0;entryY=0.5;entryDx=0;entryDy=0;" edge="1" parent="1" source="pLg2lnxw55BxPSGZb04j-3" target="pLg2lnxw55BxPSGZb04j-5">
          <mxGeometry width="50" height="50" relative="1" as="geometry">
            <mxPoint x="520" y="120" as="sourcePoint" />
            <mxPoint x="670" y="70" as="targetPoint" />
          </mxGeometry>
        </mxCell>
        <mxCell id="pLg2lnxw55BxPSGZb04j-33" value="" style="endArrow=classic;html=1;rounded=0;exitX=0.5;exitY=1;exitDx=0;exitDy=0;entryX=0.5;entryY=0;entryDx=0;entryDy=0;" edge="1" parent="1" source="pLg2lnxw55BxPSGZb04j-5" target="pLg2lnxw55BxPSGZb04j-7">
          <mxGeometry width="50" height="50" relative="1" as="geometry">
            <mxPoint x="680" y="210" as="sourcePoint" />
            <mxPoint x="740" y="190" as="targetPoint" />
          </mxGeometry>
        </mxCell>
        <mxCell id="pLg2lnxw55BxPSGZb04j-34" value="" style="endArrow=classic;html=1;rounded=0;exitX=0;exitY=0.5;exitDx=0;exitDy=0;entryX=1;entryY=0.5;entryDx=0;entryDy=0;" edge="1" parent="1" source="pLg2lnxw55BxPSGZb04j-7" target="pLg2lnxw55BxPSGZb04j-9">
          <mxGeometry width="50" height="50" relative="1" as="geometry">
            <mxPoint x="540" y="140" as="sourcePoint" />
            <mxPoint x="610" y="230" as="targetPoint" />
          </mxGeometry>
        </mxCell>
        <mxCell id="pLg2lnxw55BxPSGZb04j-35" value="" style="endArrow=classic;html=1;rounded=0;exitX=0;exitY=0.5;exitDx=0;exitDy=0;entryX=1;entryY=0.5;entryDx=0;entryDy=0;" edge="1" parent="1" target="pLg2lnxw55BxPSGZb04j-11">
          <mxGeometry width="50" height="50" relative="1" as="geometry">
            <mxPoint x="395" y="229.5" as="sourcePoint" />
            <mxPoint x="325" y="229.5" as="targetPoint" />
          </mxGeometry>
        </mxCell>
        <mxCell id="pLg2lnxw55BxPSGZb04j-36" value="" style="endArrow=classic;html=1;rounded=0;exitX=0.525;exitY=1;exitDx=0;exitDy=0;exitPerimeter=0;entryX=0.5;entryY=0;entryDx=0;entryDy=0;" edge="1" parent="1" target="pLg2lnxw55BxPSGZb04j-13">
          <mxGeometry width="50" height="50" relative="1" as="geometry">
            <mxPoint x="179" y="260" as="sourcePoint" />
            <mxPoint x="179" y="310" as="targetPoint" />
          </mxGeometry>
        </mxCell>
        <mxCell id="pLg2lnxw55BxPSGZb04j-37" value="" style="endArrow=classic;html=1;rounded=0;exitX=0.5;exitY=1;exitDx=0;exitDy=0;entryX=0.5;entryY=0;entryDx=0;entryDy=0;" edge="1" parent="1" source="pLg2lnxw55BxPSGZb04j-13" target="pLg2lnxw55BxPSGZb04j-15">
          <mxGeometry width="50" height="50" relative="1" as="geometry">
            <mxPoint x="110" y="420" as="sourcePoint" />
            <mxPoint x="180" y="430" as="targetPoint" />
          </mxGeometry>
        </mxCell>
        <mxCell id="pLg2lnxw55BxPSGZb04j-38" value="" style="endArrow=classic;html=1;rounded=0;exitX=1;exitY=0.5;exitDx=0;exitDy=0;entryX=0.5;entryY=1;entryDx=0;entryDy=0;" edge="1" parent="1" source="pLg2lnxw55BxPSGZb04j-15" target="pLg2lnxw55BxPSGZb04j-17">
          <mxGeometry width="50" height="50" relative="1" as="geometry">
            <mxPoint x="255" y="475" as="sourcePoint" />
            <mxPoint x="305" y="425" as="targetPoint" />
            <Array as="points">
              <mxPoint x="400" y="470" />
            </Array>
          </mxGeometry>
        </mxCell>
        <mxCell id="pLg2lnxw55BxPSGZb04j-41" value="" style="endArrow=classic;html=1;rounded=0;entryX=0.857;entryY=1.083;entryDx=0;entryDy=0;entryPerimeter=0;" edge="1" parent="1" target="pLg2lnxw55BxPSGZb04j-11">
          <mxGeometry width="50" height="50" relative="1" as="geometry">
            <mxPoint x="400" y="360" as="sourcePoint" />
            <mxPoint x="260" y="350" as="targetPoint" />
            <Array as="points">
              <mxPoint x="400" y="320" />
              <mxPoint x="280" y="320" />
            </Array>
          </mxGeometry>
        </mxCell>
        <mxCell id="pLg2lnxw55BxPSGZb04j-55" value="Tidak Terverifikasi" style="edgeLabel;html=1;align=center;verticalAlign=middle;resizable=0;points=[];" vertex="1" connectable="0" parent="pLg2lnxw55BxPSGZb04j-41">
          <mxGeometry x="-0.0047" y="1" relative="1" as="geometry">
            <mxPoint x="10" y="-1" as="offset" />
          </mxGeometry>
        </mxCell>
        <mxCell id="pLg2lnxw55BxPSGZb04j-42" value="" style="endArrow=classic;html=1;rounded=0;exitX=1;exitY=0.5;exitDx=0;exitDy=0;entryX=0;entryY=0.5;entryDx=0;entryDy=0;" edge="1" parent="1" source="pLg2lnxw55BxPSGZb04j-17" target="pLg2lnxw55BxPSGZb04j-19">
          <mxGeometry width="50" height="50" relative="1" as="geometry">
            <mxPoint x="480" y="420" as="sourcePoint" />
            <mxPoint x="550" y="400" as="targetPoint" />
          </mxGeometry>
        </mxCell>
        <mxCell id="pLg2lnxw55BxPSGZb04j-54" value="Terverifikasi" style="edgeLabel;html=1;align=center;verticalAlign=middle;resizable=0;points=[];" vertex="1" connectable="0" parent="pLg2lnxw55BxPSGZb04j-42">
          <mxGeometry x="-0.0167" y="-1" relative="1" as="geometry">
            <mxPoint as="offset" />
          </mxGeometry>
        </mxCell>
        <mxCell id="pLg2lnxw55BxPSGZb04j-45" value="" style="endArrow=classic;html=1;rounded=0;exitX=1;exitY=0.5;exitDx=0;exitDy=0;entryX=0.5;entryY=0;entryDx=0;entryDy=0;" edge="1" parent="1" target="pLg2lnxw55BxPSGZb04j-21">
          <mxGeometry width="50" height="50" relative="1" as="geometry">
            <mxPoint x="640" y="430" as="sourcePoint" />
            <mxPoint x="700" y="490" as="targetPoint" />
          </mxGeometry>
        </mxCell>
        <mxCell id="pLg2lnxw55BxPSGZb04j-47" value="" style="endArrow=classic;html=1;rounded=0;entryX=0.5;entryY=1;entryDx=0;entryDy=0;" edge="1" parent="1" target="pLg2lnxw55BxPSGZb04j-23">
          <mxGeometry width="50" height="50" relative="1" as="geometry">
            <mxPoint x="680" y="559" as="sourcePoint" />
            <mxPoint x="730" y="509" as="targetPoint" />
            <Array as="points">
              <mxPoint x="770" y="559" />
            </Array>
          </mxGeometry>
        </mxCell>
        <mxCell id="pLg2lnxw55BxPSGZb04j-48" value="" style="endArrow=classic;html=1;rounded=0;entryX=1;entryY=0.5;entryDx=0;entryDy=0;" edge="1" parent="1" target="pLg2lnxw55BxPSGZb04j-19">
          <mxGeometry width="50" height="50" relative="1" as="geometry">
            <mxPoint x="770" y="460" as="sourcePoint" />
            <mxPoint x="820" y="410" as="targetPoint" />
            <Array as="points">
              <mxPoint x="770" y="400" />
            </Array>
          </mxGeometry>
        </mxCell>
        <mxCell id="pLg2lnxw55BxPSGZb04j-49" value="" style="endArrow=classic;html=1;rounded=0;exitX=0;exitY=0.5;exitDx=0;exitDy=0;entryX=1;entryY=0.5;entryDx=0;entryDy=0;" edge="1" parent="1" source="pLg2lnxw55BxPSGZb04j-21" target="pLg2lnxw55BxPSGZb04j-25">
          <mxGeometry width="50" height="50" relative="1" as="geometry">
            <mxPoint x="480" y="420" as="sourcePoint" />
            <mxPoint x="530" y="370" as="targetPoint" />
          </mxGeometry>
        </mxCell>
        <mxCell id="pLg2lnxw55BxPSGZb04j-50" value="" style="endArrow=classic;html=1;rounded=0;exitX=0;exitY=0.5;exitDx=0;exitDy=0;entryX=1;entryY=0.5;entryDx=0;entryDy=0;" edge="1" parent="1" source="pLg2lnxw55BxPSGZb04j-25" target="pLg2lnxw55BxPSGZb04j-27">
          <mxGeometry width="50" height="50" relative="1" as="geometry">
            <mxPoint x="480" y="420" as="sourcePoint" />
            <mxPoint x="530" y="370" as="targetPoint" />
          </mxGeometry>
        </mxCell>
        <mxCell id="pLg2lnxw55BxPSGZb04j-52" value="" style="endArrow=classic;html=1;rounded=0;entryX=0;entryY=0.5;entryDx=0;entryDy=0;exitX=0.5;exitY=1;exitDx=0;exitDy=0;" edge="1" parent="1" source="pLg2lnxw55BxPSGZb04j-27" target="pLg2lnxw55BxPSGZb04j-29">
          <mxGeometry width="50" height="50" relative="1" as="geometry">
            <mxPoint x="170" y="650" as="sourcePoint" />
            <mxPoint x="237.5" y="535" as="targetPoint" />
            <Array as="points">
              <mxPoint x="183" y="710" />
            </Array>
          </mxGeometry>
        </mxCell>
      </root>
    </mxGraphModel>
  </diagram>
</mxfile>
